<svg xmlns="http://www.w3.org/2000/svg" viewBox="0 0 14 14" height="23" width="23"><g><rect x="0.5" y="0.5" width="13" height="5" rx="1" fill="none" stroke="#f0f1f2" stroke-linecap="round" stroke-linejoin="round"></rect><path d="M3.25,2.25A.75.75,0,1,0,4,3a.76.76,0,0,0-.75-.75Z" fill="#f0f1f2"></path><line x1="6" y1="3" x2="8" y2="3" fill="none" stroke="#f0f1f2" stroke-linecap="round" stroke-linejoin="round"></line><path d="M1.5,5.5a1,1,0,0,0-1,1v3a1,1,0,0,0,1,1h11a1,1,0,0,0,1-1v-3a1,1,0,0,0-1-1" fill="none" stroke="#f0f1f2" stroke-linecap="round" stroke-linejoin="round"></path><path d="M3.25,7.25A.75.75,0,1,0,4,8a.76.76,0,0,0-.75-.75Z" fill="#f0f1f2"></path><line x1="6" y1="8" x2="8" y2="8" fill="none" stroke="#f0f1f2" stroke-linecap="round" stroke-linejoin="round"></line><line x1="7" y1="10.5" x2="7" y2="13.5" fill="none" stroke="#f0f1f2" stroke-linecap="round" stroke-linejoin="round"></line><line x1="2" y1="13.5" x2="12" y2="13.5" fill="none" stroke="#f0f1f2" stroke-linecap="round" stroke-linejoin="round"></line></g></svg>